<?xml version="1.0" standalone="no"?>
<!DOCTYPE svg PUBLIC "-//W3C//DTD SVG 20010904//EN"
 "http://www.w3.org/TR/2001/REC-SVG-20010904/DTD/svg10.dtd">
<svg version="1.0" xmlns="http://www.w3.org/2000/svg"
 width="2000.000000pt" height="1500.000000pt" viewBox="0 0 2000.000000 1500.000000"
 preserveAspectRatio="xMidYMid meet">

<g transform="translate(0.000000,1500.000000) scale(0.100000,-0.100000)"
fill="#000000" stroke="none">
<path d="M0 7500 l0 -7500 10000 0 10000 0 0 7500 0 7500 -10000 0 -10000 0 0
-7500z m9982 4531 c24 -10 78 -46 121 -79 82 -64 117 -78 167 -67 l30 7 0
-104 c0 -132 -21 -181 -90 -215 -42 -20 -63 -22 -315 -27 -297 -5 -394 -16
-609 -70 -207 -53 -423 -140 -651 -264 -138 -74 -716 -415 -792 -466 -84 -56
-461 -405 -668 -618 -263 -269 -410 -469 -540 -733 -86 -173 -154 -369 -189
-546 -14 -68 -53 -372 -86 -674 -33 -303 -66 -566 -72 -585 -6 -19 -30 -75
-54 -123 -24 -49 -46 -107 -49 -130 -4 -27 11 -157 40 -356 25 -173 45 -320
45 -327 0 -10 -7 -10 -30 -1 -36 13 -57 4 -79 -35 -19 -32 -3 -92 35 -138 30
-35 42 -37 77 -10 14 11 27 20 30 20 6 0 72 -152 137 -315 70 -176 140 -320
186 -381 124 -164 479 -523 954 -964 157 -145 344 -322 415 -392 l130 -127 70
15 c91 19 122 31 145 61 23 29 35 15 26 -31 -6 -31 -51 -83 -89 -103 -14 -7 0
-19 80 -65 237 -137 426 -194 728 -218 287 -23 607 -72 887 -137 l157 -36 118
26 c102 23 188 35 432 64 36 4 54 15 107 64 35 32 68 59 73 59 5 0 12 30 16
66 l7 66 20 -22 c17 -18 22 -20 29 -8 8 15 -5 87 -23 122 -21 40 52 -36 96
-100 l41 -61 24 38 c14 21 31 41 39 44 20 7 42 -13 43 -39 1 -11 7 12 15 53
15 83 21 94 38 67 6 -10 18 -28 27 -39 16 -20 17 -20 41 29 l24 49 82 3 82 3
-6 -29 c-8 -39 11 -72 41 -72 14 0 49 21 86 51 57 48 62 50 72 33 26 -47 65
-74 107 -74 55 0 88 18 363 202 380 254 918 647 1297 947 63 50 117 91 120 91
3 0 4 -28 3 -62 l-2 -63 27 82 c21 64 30 81 42 77 31 -14 68 -16 88 -5 11 6
45 48 75 93 67 101 156 200 241 267 35 28 66 51 69 51 12 0 -137 -351 -218
-515 -169 -344 -312 -564 -561 -862 -94 -112 -103 -126 -109 -175 -9 -68 -39
-132 -73 -154 -18 -12 -57 -19 -129 -24 -145 -9 -188 -44 -148 -121 l17 -32
-32 23 c-50 36 -113 37 -211 5 -84 -28 -109 -40 -109 -55 0 -5 22 -32 49 -62
26 -29 58 -72 70 -95 20 -41 40 -133 28 -133 -6 0 -93 90 -125 130 l-20 25
-56 -39 c-31 -21 -131 -117 -222 -212 -183 -191 -189 -202 -178 -307 l7 -57
-85 6 c-154 12 -188 -16 -188 -156 0 -57 -4 -80 -12 -80 -27 0 -78 41 -119 95
-66 87 -68 88 -245 49 -126 -27 -238 -70 -231 -88 16 -44 17 -55 0 -71 -28
-29 -96 -13 -214 48 -173 92 -295 116 -419 84 -39 -10 -56 -9 -125 9 -278 74
-647 81 -1130 23 -88 -10 -163 -19 -167 -19 -5 0 -8 32 -8 72 l0 71 -23 -21
c-34 -32 -70 -27 -135 16 -89 60 -178 110 -441 246 l-245 127 -95 4 c-164 7
-300 57 -437 162 -113 85 -146 95 -369 103 -212 8 -251 17 -361 89 -145 93
-268 287 -320 506 -45 187 -53 213 -80 245 -29 34 -73 60 -101 60 -15 0 -26
24 -57 117 -59 182 -173 461 -366 898 -270 611 -270 609 -270 817 l0 106 39
-5 c31 -4 43 -1 60 16 26 26 26 43 0 177 -48 250 -135 492 -279 781 l-89 177
14 76 c8 41 33 197 55 345 73 479 127 690 228 890 96 191 133 233 573 660 181
176 214 219 255 333 64 183 53 168 353 464 274 272 519 496 575 525 42 22 126
27 246 14 58 -6 126 -8 152 -5 43 6 48 10 59 43 20 64 77 147 142 207 117 109
230 151 374 139 78 -6 86 -5 126 19 24 13 95 73 158 132 62 58 124 110 136
115 52 20 66 -11 55 -119 -5 -39 -7 -72 -7 -72 1 0 40 25 86 57 117 78 295
162 564 264 127 48 233 88 237 88 3 1 26 -7 50 -18z m1738 -282 c255 -26 643
-166 924 -334 197 -117 402 -284 530 -431 54 -61 189 -269 527 -811 l455 -728
32 -265 c52 -415 61 -511 68 -727 4 -112 11 -203 16 -203 22 0 48 23 72 64 24
41 69 86 86 86 4 0 -6 -39 -22 -87 -62 -184 -105 -407 -133 -683 -10 -91 -18
-166 -20 -168 -2 -2 -9 30 -15 70 -15 85 -9 269 15 453 8 65 15 123 15 128 0
5 -13 -5 -29 -22 -59 -64 -111 -24 -111 85 0 38 -5 49 -27 67 -124 98 -245
254 -338 433 l-48 91 19 74 c25 101 23 226 -5 300 -26 69 -84 137 -161 189
-95 65 -133 117 -189 258 -74 188 -94 270 -95 385 -1 53 -2 97 -4 97 -1 0 -42
-19 -90 -42 -65 -31 -100 -42 -137 -42 -57 -1 -6 -34 -560 363 -365 261 -639
447 -845 573 -268 164 -268 164 -402 177 -223 22 -400 94 -519 211 -51 50 -69
76 -79 113 -25 91 13 177 94 217 38 18 64 22 168 23 89 2 130 -2 148 -12 20
-12 25 -12 29 0 2 7 21 31 42 53 l37 41 104 6 c182 10 343 9 448 -2z m581
-1886 c66 -33 156 -114 205 -186 69 -103 107 -230 136 -467 16 -127 15 -1115
-1 -1395 -6 -99 -13 -331 -16 -515 -9 -488 -29 -684 -87 -835 -25 -67 -7 -57
-283 -155 -301 -107 -453 -122 -1256 -118 -410 2 -575 -1 -669 -12 -69 -7
-132 -13 -140 -13 -8 1 -63 5 -122 9 -62 4 -206 2 -344 -6 l-237 -13 -18 24
c-17 22 -18 23 -37 6 -25 -22 -54 -22 -103 3 l-40 21 -33 -21 c-43 -26 -66
-25 -126 5 -60 30 -101 32 -125 5 -21 -24 -35 -26 -35 -5 0 30 -22 115 -30
115 -19 0 -53 -76 -51 -115 4 -70 -20 -24 -40 76 -9 50 -22 96 -28 102 -17 17
-26 -21 -11 -47 14 -27 5 -66 -16 -66 -10 0 -14 -12 -14 -39 0 -21 -6 -44 -14
-50 -11 -10 -19 -5 -41 23 -16 21 -32 33 -41 29 -11 -4 -14 5 -14 38 l0 43
-29 -28 -29 -28 -64 26 c-103 40 -219 56 -422 56 -363 0 -497 41 -672 203 -81
75 -85 86 -63 173 10 37 9 52 -4 82 -16 38 -26 138 -33 317 -2 55 -7 118 -10
140 -3 23 1 69 10 108 9 38 16 90 16 117 0 51 9 60 55 60 20 0 24 7 34 61 16
91 36 119 111 156 36 18 65 38 64 45 -1 7 -8 54 -17 103 -27 148 -30 226 -16
321 7 49 14 93 14 98 0 5 -20 23 -44 40 -28 20 -49 44 -56 66 -8 23 -18 34
-28 32 -12 -2 -17 10 -22 55 -3 32 -31 157 -60 278 -67 272 -79 340 -73 424 6
78 28 131 76 179 43 43 108 72 237 106 55 15 109 33 120 40 52 34 378 112 612
146 380 55 713 66 1513 50 l615 -12 275 36 c151 20 326 43 389 51 170 23 425
45 516 45 83 0 143 8 255 34 42 10 105 15 180 13 107 -2 120 -4 181 -34z
m-3115 -4352 c-3 -4 -14 -97 -25 -206 -28 -264 -31 -267 -60 -51 -11 81 -21
150 -24 152 -2 2 -9 -65 -16 -149 -18 -219 -20 -217 -55 47 -24 181 -26 220
-11 204 3 -3 13 -80 22 -172 9 -91 18 -165 19 -163 1 1 8 58 14 127 19 215 28
218 56 14 9 -73 20 -131 24 -129 4 2 12 75 19 162 14 174 16 187 31 178 6 -4
8 -10 6 -14z m536 -18 c62 -56 51 -271 -19 -353 -14 -17 -33 -30 -42 -30 -16
0 -18 16 -20 181 -1 99 -5 187 -8 196 -13 35 52 39 89 6z m-285 -31 c31 -19
40 -140 12 -158 -5 -3 -2 -19 7 -36 23 -45 14 -126 -16 -150 -28 -22 -55 -20
-54 5 0 9 1 91 2 182 2 150 4 165 20 165 9 0 22 -4 29 -8z m562 -107 c11 -55
23 -122 27 -148 3 -26 8 -46 10 -44 2 1 10 48 18 104 20 128 36 206 43 199 3
-3 -1 -45 -10 -93 -9 -48 -21 -122 -27 -163 -6 -41 -14 -83 -16 -92 -10 -36
-21 -16 -28 48 -6 56 -30 190 -52 281 -5 20 -3 25 4 18 6 -5 20 -55 31 -110z
m969 99 c26 -18 30 -79 8 -123 -13 -25 -12 -37 9 -122 28 -106 29 -117 15
-103 -5 5 -17 47 -27 93 -26 122 -44 119 -38 -6 3 -64 2 -89 -4 -73 -5 14 -9
98 -10 188 -1 173 1 179 47 146z m-1658 -4 c12 -8 9 -10 -11 -10 -24 0 -27 -4
-33 -50 -8 -57 -3 -70 25 -70 10 0 19 -4 19 -10 0 -5 -9 -10 -20 -10 -20 0
-21 -5 -18 -92 3 -79 5 -93 20 -93 9 0 20 -4 24 -8 4 -4 -9 -7 -29 -7 l-37 0
0 180 0 180 23 0 c12 0 29 -5 37 -10z m595 0 c4 -6 -5 -10 -19 -10 -25 0 -26
-2 -26 -60 0 -53 2 -60 20 -60 11 0 20 -4 20 -10 0 -5 -9 -10 -20 -10 -19 0
-20 -7 -20 -90 0 -90 2 -95 37 -91 6 1 14 -3 18 -9 4 -6 -9 -10 -34 -10 l-41
0 0 180 0 180 29 0 c17 0 33 -4 36 -10z m335 0 c11 -7 7 -10 -17 -10 l-33 0 0
-60 c0 -53 2 -60 19 -60 11 0 23 -4 26 -10 4 -6 -5 -10 -19 -10 -26 0 -26 0
-26 -89 0 -72 3 -90 16 -95 9 -3 20 -4 24 -1 5 3 11 1 15 -5 4 -6 -10 -10 -35
-10 l-41 0 2 173 c2 94 4 175 6 180 6 10 45 9 63 -3z m120 -330 c17 0 30 -4
30 -10 0 -5 -19 -10 -42 -10 l-41 0 6 137 c4 75 8 157 9 182 1 25 4 -32 5
-126 l3 -173 30 0z m176 319 c16 -18 20 -40 22 -143 4 -150 -10 -199 -55 -194
-19 2 -32 12 -42 33 -19 40 -27 227 -12 283 10 37 15 42 40 42 16 0 36 -9 47
-21z m164 1 c15 -15 20 -33 20 -70 0 -49 -23 -90 -50 -90 -6 0 -10 -37 -10
-90 0 -53 -4 -90 -10 -90 -6 0 -10 67 -10 180 0 173 1 180 20 180 11 0 29 -9
40 -20z m140 10 c12 -8 9 -10 -11 -10 -24 0 -27 -4 -32 -51 -7 -59 -4 -69 24
-69 10 0 19 -4 19 -10 0 -5 -9 -10 -20 -10 -20 0 -21 -5 -18 -92 3 -79 5 -93
20 -93 9 0 20 -4 24 -8 4 -4 -9 -7 -29 -7 l-37 0 0 180 0 180 23 0 c12 0 29
-5 37 -10z"/>
<path d="M6284 6201 c20 -38 40 -97 45 -132 12 -69 33 -99 95 -131 l39 -20
-21 36 c-11 19 -44 88 -71 152 -50 116 -82 164 -108 164 -9 0 -2 -22 21 -69z"/>
<path d="M6136 6245 c-17 -17 -22 -51 -8 -57 4 -1 29 -29 55 -61 26 -33 47
-53 46 -45 -2 30 -55 172 -65 175 -7 2 -19 -3 -28 -12z"/>
<path d="M11235 9370 c-150 -23 -349 -108 -495 -211 -109 -77 -219 -193 -302
-319 l-72 -111 -18 23 c-35 46 -68 117 -84 179 -28 109 -4 223 71 335 39 60
41 64 21 64 -28 0 -111 -111 -137 -182 -16 -47 -25 -48 -32 -4 -24 151 -233
238 -529 223 -265 -15 -455 -86 -593 -223 -156 -154 -159 -326 -8 -464 61 -55
152 -105 388 -209 264 -117 338 -172 393 -291 67 -143 4 -347 -153 -505 -180
-179 -478 -290 -775 -287 -296 3 -509 85 -619 238 -112 156 -110 390 6 624 38
79 62 111 135 185 71 72 85 91 69 93 -48 8 -182 -91 -256 -190 -52 -69 -112
-183 -141 -268 -28 -82 -25 -244 6 -325 53 -139 155 -242 315 -320 125 -61
229 -85 405 -92 407 -16 744 104 997 355 184 182 252 356 200 508 -49 143
-130 206 -482 379 -284 139 -357 187 -399 258 -59 100 -39 193 63 290 174 166
570 241 758 143 51 -26 102 -75 125 -119 16 -32 19 -54 16 -100 -4 -54 -8 -63
-41 -93 -20 -18 -49 -36 -64 -39 -58 -12 -78 -21 -81 -38 -5 -23 23 -22 95 5
41 16 75 39 117 81 32 32 56 51 53 43 -11 -28 12 -140 42 -200 16 -34 46 -80
66 -103 l36 -42 -37 -98 c-117 -312 -93 -612 64 -810 139 -175 376 -211 674
-103 132 48 313 156 405 243 18 17 35 28 38 26 7 -8 -39 -174 -76 -268 -18
-47 -58 -134 -89 -195 l-57 -111 -109 -7 c-345 -23 -494 -46 -662 -102 -289
-98 -472 -241 -472 -371 0 -79 126 -162 263 -172 289 -21 769 226 991 510 l61
78 180 -6 c121 -3 212 -11 280 -25 65 -13 103 -16 109 -10 7 7 6 14 -1 21 -25
25 -239 63 -426 75 l-107 7 16 25 c39 59 147 264 183 347 45 102 86 237 101
331 17 105 -20 159 -95 140 -46 -12 -102 -74 -149 -165 -69 -133 -180 -224
-360 -295 -168 -67 -351 -74 -468 -18 -151 71 -219 207 -219 440 0 81 6 130
25 202 27 105 70 215 83 214 4 0 46 -19 93 -41 304 -148 759 -134 1056 32 149
83 269 246 281 383 14 151 -79 300 -232 372 -118 55 -304 81 -440 60z m282
-76 c131 -27 221 -84 266 -169 17 -31 22 -58 22 -120 0 -111 -31 -173 -139
-280 -160 -158 -374 -235 -661 -236 -183 0 -322 35 -463 117 l-43 25 32 57
c151 269 386 480 638 572 139 51 226 59 348 34z m-329 -2046 c-48 -68 -171
-188 -256 -248 -139 -99 -347 -193 -502 -226 -172 -36 -326 14 -305 99 22 87
234 236 445 312 138 49 345 81 603 93 l38 2 -23 -32z"/>
<path d="M9656 5492 c-2 -4 -2 -87 1 -185 l6 -178 28 27 c40 38 53 85 54 186
0 72 -3 91 -20 114 -21 28 -61 49 -69 36z"/>
<path d="M9410 5376 c0 -62 3 -74 15 -70 31 12 29 131 -3 142 -9 3 -12 -16
-12 -72z"/>
<path d="M9409 5258 c0 -13 -3 -49 -5 -80 -4 -61 2 -70 29 -40 29 31 18 142
-13 142 -6 0 -10 -10 -11 -22z"/>
<path d="M10930 5380 c0 -89 22 -96 41 -12 9 41 -4 82 -26 82 -12 0 -15 -14
-15 -70z"/>
<path d="M10470 5431 c-5 -11 -10 -71 -9 -133 0 -160 26 -222 66 -161 25 39
23 265 -3 294 -22 24 -41 24 -54 0z"/>
<path d="M10660 5363 l1 -78 20 24 c26 32 24 124 -3 129 -16 3 -18 -6 -18 -75z"/>
</g>
</svg>
